<svg width="385" height="384" viewBox="0 0 385 384" fill="none" xmlns="http://www.w3.org/2000/svg">
<path d="M195.333 372.495C293.564 372.495 373.196 326.64 373.196 270.075C373.196 213.51 293.564 167.654 195.333 167.654C97.1028 167.654 17.4712 213.51 17.4712 270.075C17.4712 326.64 97.1028 372.495 195.333 372.495Z" fill="#FAFAFA"/>
<path d="M100.808 226.414C138.485 204.726 199.561 204.726 237.229 226.414C269.161 244.8 274.012 272.871 251.813 294.213L334.704 341.338C339.755 344.248 339.755 348.964 334.704 351.875L327.25 356.168C322.199 359.079 314.16 358.848 309.263 355.661L236.883 305.173C199.153 326.677 138.384 326.592 100.839 304.973C63.1401 283.277 63.1401 248.11 100.808 226.414Z" fill="#E6E6E6"/>
<path d="M84.5693 240.53V263.9C84.5693 276.588 92.9777 289.244 109.787 298.959C143.405 318.321 197.921 318.321 231.539 298.959C248.348 289.275 256.757 276.588 256.757 263.9V240.53C256.757 227.843 248.348 215.186 231.539 205.478C197.921 186.117 143.405 186.117 109.787 205.478C92.9777 215.155 84.5693 227.843 84.5693 240.53ZM248.425 240.53C248.425 250.683 240.949 260.575 227.374 268.393C212.359 277.041 192.223 281.802 170.663 281.802C149.103 281.802 128.968 277.041 113.953 268.393C100.377 260.575 92.9007 250.683 92.9007 240.53C92.9007 230.377 100.377 220.485 113.953 212.667C128.968 204.019 149.103 199.258 170.663 199.258C192.223 199.258 212.366 204.019 227.374 212.667C240.956 220.485 248.425 230.4 248.425 240.53Z" fill="#024282"/>
<path opacity="0.2" d="M84.5693 240.53V263.9C84.5693 276.588 92.9777 289.244 109.787 298.959C143.405 318.321 197.921 318.321 231.539 298.959C248.348 289.275 256.757 276.588 256.757 263.9V240.53C256.757 227.843 248.348 215.186 231.539 205.478C197.921 186.117 143.405 186.117 109.787 205.478C92.9777 215.155 84.5693 227.843 84.5693 240.53ZM248.425 240.53C248.425 250.683 240.949 260.575 227.374 268.393C212.359 277.041 192.223 281.802 170.663 281.802C149.103 281.802 128.968 277.041 113.953 268.393C100.377 260.575 92.9007 250.683 92.9007 240.53C92.9007 230.377 100.377 220.485 113.953 212.667C128.968 204.019 149.103 199.258 170.663 199.258C192.223 199.258 212.366 204.019 227.374 212.667C240.956 220.485 248.425 230.4 248.425 240.53Z" fill="white"/>
<path opacity="0.6" d="M256.672 266.081C255.332 274.122 251.783 280.174 237.484 291.303C217.271 307.047 166.089 313.475 136.383 303.698C108.362 294.482 99.4226 276.442 99.4226 264.069L99.4996 256.796C95.1722 251.658 92.893 246.137 92.893 240.53C92.893 234.785 95.2877 229.125 99.823 223.88L99.9231 213.635H98.3292C89.1585 221.799 84.5693 231.161 84.5693 240.515V263.885C84.5693 276.572 92.9777 289.229 109.787 298.944C143.405 318.305 197.921 318.305 231.539 298.944C247.386 289.836 255.763 278.016 256.672 266.081Z" fill="#024282"/>
<path d="M231.547 205.478C197.921 186.117 143.413 186.117 109.795 205.478C76.1765 224.84 76.1688 256.228 109.795 275.589C143.421 294.95 197.921 294.95 231.547 275.589C265.173 256.228 265.165 224.84 231.547 205.478ZM227.381 268.393C212.366 277.041 192.223 281.802 170.671 281.802C149.119 281.802 128.975 277.041 113.953 268.393C100.378 260.575 92.9009 250.683 92.9009 240.53C92.9009 230.377 100.378 220.485 113.953 212.667C128.968 204.019 149.111 199.258 170.671 199.258C192.231 199.258 212.366 204.019 227.381 212.667C240.956 220.485 248.433 230.385 248.433 240.53C248.433 250.675 240.956 260.575 227.381 268.393Z" fill="#024282"/>
<path opacity="0.5" d="M231.547 205.478C197.921 186.117 143.413 186.117 109.795 205.478C76.1765 224.84 76.1688 256.228 109.795 275.589C143.421 294.95 197.921 294.95 231.547 275.589C265.173 256.228 265.165 224.84 231.547 205.478ZM227.381 268.393C212.366 277.041 192.223 281.802 170.671 281.802C149.119 281.802 128.975 277.041 113.953 268.393C100.378 260.575 92.9009 250.683 92.9009 240.53C92.9009 230.377 100.378 220.485 113.953 212.667C128.968 204.019 149.111 199.258 170.671 199.258C192.231 199.258 212.366 204.019 227.381 212.667C240.956 220.485 248.433 230.385 248.433 240.53C248.433 250.675 240.956 260.575 227.381 268.393Z" fill="white"/>
<path d="M248.441 240.53C248.391 244.657 247.229 248.695 245.076 252.219C241.665 246.329 235.651 240.799 227.366 236.045C212.366 227.39 192.215 222.628 170.655 222.628C149.095 222.628 128.96 227.39 113.953 236.045C105.675 240.799 99.6692 246.329 96.2427 252.219C94.1067 248.688 92.9532 244.653 92.9009 240.53C92.9009 230.385 100.378 220.485 113.96 212.659C128.968 204.027 149.111 199.258 170.663 199.258C192.215 199.258 212.374 204.027 227.374 212.659C240.964 220.485 248.441 230.4 248.441 240.53Z" fill="#024282"/>
<path opacity="0.3" d="M248.441 240.53C248.391 244.657 247.229 248.695 245.076 252.219C241.665 246.329 235.651 240.799 227.366 236.045C212.366 227.39 192.215 222.628 170.655 222.628C149.095 222.628 128.96 227.39 113.953 236.045C105.675 240.799 99.6692 246.329 96.2427 252.219C94.1067 248.688 92.9532 244.653 92.9009 240.53C92.9009 230.385 100.378 220.485 113.96 212.659C128.968 204.027 149.111 199.258 170.663 199.258C192.215 199.258 212.374 204.027 227.374 212.659C240.964 220.485 248.441 230.4 248.441 240.53Z" fill="white"/>
<path opacity="0.6" d="M113.96 212.659C100.378 220.485 92.9009 230.385 92.9009 240.53C92.9555 244.654 94.1117 248.689 96.2504 252.219C99.6846 246.328 105.691 240.799 113.96 236.045C117.457 234.05 121.09 232.302 124.833 230.815C121.553 232.082 111.481 235.315 115.154 225.738C119.52 214.364 140.826 202.046 156.48 200.003C140.379 201.592 125.618 205.955 113.96 212.659Z" fill="#024282"/>
<path opacity="0.4" d="M227.381 223.25C212.366 214.602 192.223 209.841 170.671 209.841C149.118 209.841 128.968 214.602 113.953 223.25C102.757 229.701 95.719 237.566 93.5938 245.822C95.719 254.078 102.757 261.95 113.953 268.393C128.975 277.041 149.111 281.802 170.671 281.802C192.231 281.802 212.366 277.041 227.381 268.393C238.585 261.942 245.623 254.078 247.74 245.822C245.63 237.566 238.585 229.701 227.381 223.25Z" fill="white"/>
<path d="M108.201 251.182C113.013 254.945 118.472 257.326 124.04 259.215C129.622 261.059 135.34 262.466 141.141 263.424C152.734 265.301 164.491 265.971 176.222 265.421C182.082 265.16 187.95 264.614 193.778 263.831C199.589 263.053 205.346 261.922 211.019 260.444C216.664 259.036 222.124 256.974 227.289 254.3C228.564 253.623 229.798 252.871 230.985 252.05C232.177 251.239 233.307 250.34 234.365 249.362C235.433 248.379 236.386 247.279 237.206 246.083C238.056 244.854 238.703 243.498 239.124 242.066C239.149 243.636 238.888 245.197 238.354 246.674C237.789 248.158 237.049 249.571 236.152 250.883C235.264 252.203 234.253 253.438 233.133 254.569C232.024 255.705 230.844 256.77 229.599 257.756C224.581 261.571 219.019 264.615 213.098 266.788C207.26 268.982 201.238 270.655 195.103 271.788C189.001 272.939 182.826 273.671 176.623 273.976C164.172 274.625 151.697 273.301 139.663 270.052C133.643 268.406 127.828 266.088 122.33 263.14C119.592 261.643 116.99 259.911 114.553 257.964C113.945 257.48 113.375 256.95 112.79 256.428C112.205 255.905 111.65 255.375 111.119 254.815C110.046 253.687 109.07 252.472 108.201 251.182Z" fill="white"/>
<path d="M228.983 290.465C229.086 288.377 229.683 286.342 230.724 284.527C231.765 282.712 233.221 281.168 234.974 280.021C236.621 279.061 238.123 278.961 239.216 279.575L258.405 290.519C259.49 291.141 260.168 292.485 260.176 294.359C260.07 296.447 259.473 298.481 258.432 300.296C257.391 302.111 255.936 303.655 254.185 304.804C252.522 305.772 251.013 305.872 249.919 305.242L230.739 294.305C229.676 293.737 228.991 292.393 228.983 290.465Z" fill="#37474F"/>
<path d="M230.777 294.359C229.676 293.737 228.991 292.393 228.983 290.465C229.01 288.911 229.359 287.379 230.007 285.965L257.581 301.724C256.683 302.983 255.542 304.048 254.224 304.858C252.56 305.825 251.051 305.925 249.958 305.295L230.777 294.359Z" fill="#263238"/>
<path d="M323.739 321.646L262.678 290.611L262.601 290.565C261.184 289.797 259.259 289.936 257.142 291.164C252.814 293.683 249.326 299.766 249.349 304.758C249.349 307.262 250.25 309.013 251.659 309.827L309.047 346.691C310.699 347.733 312.543 348.433 314.472 348.749C316.4 349.065 318.372 348.99 320.271 348.53C322.17 348.069 323.956 347.231 325.523 346.067C327.091 344.903 328.407 343.436 329.393 341.753C330.38 340.071 331.016 338.207 331.265 336.274C331.514 334.341 331.37 332.378 330.841 330.501C330.313 328.625 329.411 326.873 328.19 325.352C326.968 323.831 325.452 322.57 323.731 321.646H323.739Z" fill="#455A64"/>
<path d="M251.667 309.842L309.055 346.706C311.189 348.042 313.634 348.802 316.15 348.912C318.667 349.021 321.169 348.477 323.411 347.331C325.653 346.186 327.559 344.479 328.94 342.379C330.322 340.278 331.133 337.855 331.293 335.347C330.192 340.117 322.291 344.172 312.497 338.711C302.703 333.251 266.42 310.372 249.935 300.903C249.548 302.146 249.345 303.44 249.334 304.743C249.342 307.277 250.25 309.028 251.667 309.842Z" fill="#37474F"/>
<path d="M251.667 309.842C250.235 309.028 249.357 307.277 249.357 304.773C249.357 299.781 252.822 293.699 257.149 291.18C259.267 289.951 261.192 289.82 262.609 290.581L267.999 293.315C266.543 292.547 264.58 292.67 262.401 293.929C257.966 296.51 254.385 302.753 254.408 307.876C254.408 310.441 255.294 312.277 256.757 313.106" fill="#024282"/>
<path opacity="0.2" d="M256.749 313.106C255.286 312.277 254.439 310.441 254.401 307.876C254.409 306.519 254.619 305.17 255.024 303.875C253.184 302.784 251.467 301.786 249.935 300.903C249.74 301.545 249.589 302.199 249.48 302.861C249.434 303.184 249.396 303.506 249.365 303.829C249.365 304.151 249.326 304.466 249.365 304.773C249.365 307.277 250.266 309.028 251.675 309.842L256.749 313.106Z" fill="black"/>
<path d="M105.652 345.416L59.4518 322.368L41.0488 330.494L105.652 345.416Z" fill="#FF5C00"/>
<g opacity="0.15">
<path d="M105.652 345.416L59.4518 322.368L41.0488 330.494L105.652 345.416Z" fill="white"/>
</g>
<path d="M105.652 345.416L64.9575 318.282L72.2417 307.838L105.652 345.416Z" fill="#FF5C00"/>
<g opacity="0.15">
<path d="M105.652 345.416L64.9575 318.282L72.2417 307.838L105.652 345.416Z" fill="white"/>
</g>
<path d="M64.9575 318.282L65.7198 325.494L105.652 345.416L64.9575 318.282Z" fill="#FF5C00"/>
<g opacity="0.2">
<path d="M64.9575 318.282L65.7198 325.494L105.652 345.416L64.9575 318.282Z" fill="black"/>
</g>
<path d="M58.3659 316.9C58.4778 316.897 58.5847 316.854 58.6662 316.777C58.7605 316.685 58.8173 316.561 58.8258 316.429C58.8343 316.297 58.794 316.167 58.7124 316.063L57.8269 314.88C57.791 314.83 57.7449 314.789 57.6915 314.758C57.6381 314.728 57.5788 314.709 57.5175 314.703C57.4563 314.697 57.3944 314.704 57.3363 314.724C57.2781 314.744 57.2248 314.777 57.1801 314.819C57.0862 314.911 57.029 315.035 57.0191 315.166C57.0092 315.297 57.0473 315.428 57.1262 315.533C57.4188 315.925 57.7191 316.301 58.0194 316.693C58.0572 316.752 58.1082 316.801 58.1683 316.837C58.2284 316.873 58.2961 316.894 58.3659 316.9Z" fill="#455A64"/>
<path d="M54.3081 311.662C53.7588 310.863 53.2275 310.057 52.7142 309.243C52.6447 309.131 52.6182 308.998 52.6394 308.868C52.6606 308.738 52.7282 308.62 52.8297 308.536C52.8776 308.499 52.9332 308.471 52.9925 308.457C53.0519 308.443 53.1137 308.441 53.1737 308.453C53.2337 308.465 53.2905 308.489 53.3401 308.525C53.3897 308.56 53.431 308.606 53.4611 308.659C53.977 309.466 54.5006 310.264 55.0011 311.055C55.0765 311.164 55.1088 311.296 55.0917 311.427C55.0746 311.557 55.0094 311.677 54.9087 311.762C54.834 311.827 54.7382 311.862 54.6392 311.862C54.5727 311.855 54.5085 311.833 54.4513 311.799C54.394 311.764 54.3451 311.718 54.3081 311.662ZM50.2348 305.065C49.7651 304.213 49.3031 303.345 48.8642 302.477C48.8039 302.36 48.7886 302.225 48.8212 302.098C48.8539 301.97 48.9321 301.859 49.0413 301.786C49.0943 301.753 49.1537 301.732 49.2155 301.725C49.2773 301.717 49.34 301.723 49.3992 301.742C49.4585 301.761 49.5129 301.793 49.5588 301.835C49.6047 301.877 49.6409 301.928 49.665 301.985C50.0962 302.838 50.5505 303.69 51.0125 304.535C51.0781 304.649 51.0994 304.783 51.0725 304.912C51.0455 305.041 50.9721 305.156 50.8662 305.234C50.7943 305.278 50.7118 305.302 50.6275 305.303C50.5467 305.302 50.4678 305.279 50.3987 305.237C50.3297 305.195 50.2731 305.136 50.2348 305.065ZM46.8006 298.03C46.4156 297.116 46.0306 296.195 45.7072 295.281C45.6599 295.16 45.6589 295.025 45.7044 294.904C45.7498 294.782 45.8385 294.681 45.9536 294.62C46.0109 294.596 46.0727 294.584 46.135 294.585C46.1973 294.586 46.2587 294.6 46.3153 294.626C46.3718 294.652 46.4223 294.689 46.4635 294.736C46.5046 294.783 46.5355 294.837 46.5542 294.897C46.8853 295.795 47.2472 296.702 47.6322 297.6C47.6839 297.721 47.6898 297.856 47.6487 297.98C47.6076 298.105 47.5223 298.21 47.4089 298.276C47.3491 298.306 47.2832 298.321 47.2164 298.322C47.1261 298.319 47.0385 298.29 46.9646 298.238C46.8907 298.186 46.8337 298.114 46.8006 298.03ZM44.1364 290.596C43.8592 289.636 43.5974 288.661 43.3664 287.716C43.3296 287.591 43.3427 287.456 43.403 287.34C43.4632 287.224 43.5659 287.136 43.6898 287.094C43.75 287.078 43.8129 287.075 43.8745 287.084C43.9361 287.094 43.9951 287.115 44.0478 287.149C44.1005 287.182 44.1459 287.225 44.181 287.277C44.2161 287.328 44.2402 287.386 44.2519 287.447C44.4752 288.384 44.7293 289.336 45.0219 290.281C45.0611 290.405 45.0528 290.538 44.9988 290.656C44.9447 290.774 44.8486 290.867 44.7293 290.918H44.5907C44.4904 290.92 44.3921 290.89 44.3104 290.832C44.2286 290.774 44.1676 290.691 44.1364 290.596ZM42.35 282.831C42.196 281.856 42.0574 280.858 41.9419 279.867C41.9194 279.74 41.9479 279.609 42.0214 279.502C42.0949 279.396 42.2074 279.323 42.3346 279.299C42.4608 279.29 42.5854 279.331 42.6818 279.413C42.7782 279.495 42.8387 279.611 42.8505 279.736C42.9583 280.712 43.0969 281.695 43.2509 282.655C43.2768 282.78 43.2538 282.91 43.1864 283.019C43.1191 283.127 43.0127 283.206 42.889 283.238H42.8043C42.6933 283.233 42.5876 283.189 42.5049 283.115C42.4222 283.041 42.3675 282.941 42.35 282.831ZM41.58 274.875C41.58 274.107 41.5338 273.339 41.5338 272.517V271.872C41.5307 271.81 41.54 271.747 41.5611 271.688C41.5823 271.629 41.6149 271.575 41.6571 271.528C41.6993 271.482 41.7503 271.445 41.8071 271.418C41.8639 271.391 41.9254 271.376 41.9881 271.373C42.1155 271.383 42.2338 271.442 42.3174 271.539C42.401 271.635 42.4432 271.76 42.4347 271.887V272.517C42.4347 273.285 42.4347 274.053 42.4347 274.821C42.4455 274.949 42.4056 275.076 42.3236 275.175C42.2415 275.274 42.1239 275.338 41.9958 275.351C41.8801 275.336 41.774 275.279 41.6974 275.192C41.6208 275.104 41.579 274.991 41.58 274.875ZM42.1883 267.433C42.0623 267.41 41.9497 267.341 41.8738 267.238C41.7979 267.135 41.7644 267.007 41.7802 266.88C41.8649 265.889 41.9727 264.883 42.0959 263.893C42.1006 263.83 42.1181 263.769 42.1473 263.713C42.1766 263.657 42.217 263.608 42.2661 263.568C42.3151 263.529 42.3718 263.5 42.4326 263.483C42.4934 263.466 42.557 263.462 42.6195 263.47C42.7453 263.496 42.8559 263.57 42.9278 263.676C42.9997 263.782 43.0272 263.912 43.0045 264.038C42.8813 265.014 42.7735 266.005 42.6888 266.972C42.6833 267.091 42.6339 267.204 42.5501 267.289C42.4662 267.374 42.3538 267.426 42.2345 267.433H42.1883ZM43.2663 259.584C43.143 259.545 43.0393 259.46 42.9763 259.348C42.9134 259.235 42.8959 259.103 42.9275 258.977C43.1277 258.002 43.3587 257.027 43.6128 256.067C43.6243 256.006 43.6484 255.948 43.6837 255.897C43.7189 255.846 43.7644 255.803 43.8173 255.77C43.8702 255.737 43.9293 255.716 43.9909 255.708C44.0525 255.699 44.1151 255.704 44.1749 255.721C44.2968 255.768 44.3967 255.858 44.4551 255.975C44.5136 256.091 44.5262 256.225 44.4906 256.351C44.2442 257.288 44.0132 258.255 43.813 259.208C43.7969 259.314 43.7443 259.411 43.6642 259.482C43.5841 259.554 43.4815 259.595 43.3741 259.599L43.2663 259.584ZM45.3453 251.989C45.2282 251.932 45.1369 251.833 45.0897 251.712C45.0426 251.591 45.0431 251.456 45.0912 251.336C45.4223 250.414 45.7919 249.485 46.1769 248.579C46.1986 248.521 46.2321 248.469 46.2752 248.425C46.3182 248.381 46.37 248.346 46.4271 248.323C46.4842 248.3 46.5456 248.289 46.6072 248.291C46.6688 248.292 46.7294 248.307 46.7852 248.333C46.8974 248.4 46.9816 248.505 47.0226 248.629C47.0636 248.754 47.0586 248.888 47.0085 249.009C46.6235 249.9 46.2385 250.806 45.9382 251.712C45.9093 251.802 45.853 251.881 45.777 251.937C45.7011 251.994 45.6094 252.025 45.5147 252.027C45.4558 252.029 45.3974 252.016 45.3453 251.989ZM48.51 244.854C48.4015 244.778 48.325 244.664 48.2952 244.535C48.2654 244.406 48.2843 244.271 48.3483 244.155C48.818 243.302 49.3108 242.45 49.8113 241.628C49.8409 241.574 49.8819 241.526 49.9316 241.489C49.9812 241.452 50.0383 241.426 50.099 241.413C50.1597 241.4 50.2225 241.4 50.2832 241.413C50.3438 241.426 50.4008 241.453 50.4504 241.49C50.5518 241.574 50.6198 241.691 50.6424 241.821C50.665 241.95 50.6406 242.083 50.5736 242.197C50.0731 243.003 49.588 243.84 49.1337 244.677C49.0971 244.75 49.0411 244.812 48.9718 244.855C48.9026 244.898 48.8227 244.922 48.741 244.923C48.6589 244.923 48.5786 244.899 48.51 244.854ZM52.5987 238.334C52.5053 238.242 52.4484 238.12 52.4385 237.99C52.4286 237.86 52.4664 237.731 52.5448 237.627C53.1223 236.859 53.7306 236.091 54.3389 235.369C54.3786 235.322 54.4282 235.284 54.484 235.259C54.5399 235.233 54.6007 235.219 54.6623 235.219C54.7239 235.219 54.7847 235.233 54.8405 235.259C54.8964 235.284 54.9459 235.322 54.9857 235.369C55.0734 235.467 55.1218 235.595 55.1218 235.726C55.1218 235.858 55.0734 235.985 54.9857 236.083C54.3851 236.798 53.7922 237.535 53.2224 238.295C53.1822 238.352 53.1291 238.398 53.0675 238.43C53.006 238.462 52.9376 238.479 52.8682 238.479C52.8094 238.478 52.7516 238.465 52.6985 238.439C52.6454 238.414 52.5983 238.378 52.5602 238.334H52.5987ZM57.5498 232.589C57.4621 232.49 57.4137 232.363 57.4137 232.232C57.4137 232.1 57.4621 231.973 57.5498 231.875C58.2274 231.207 58.9281 230.554 59.6288 229.939C59.675 229.898 59.7295 229.868 59.7887 229.849C59.8478 229.831 59.9102 229.826 59.9715 229.834C60.0329 229.842 60.0918 229.863 60.1443 229.896C60.1967 229.929 60.2415 229.972 60.2756 230.024C60.3501 230.132 60.3833 230.264 60.3692 230.395C60.3551 230.526 60.2946 230.648 60.1986 230.738C59.5056 231.337 58.8203 231.974 58.1504 232.627C58.0714 232.709 57.9635 232.755 57.8501 232.758C57.7845 232.757 57.7201 232.741 57.6615 232.712C57.6028 232.682 57.5515 232.641 57.5113 232.589H57.5498ZM63.217 227.727C63.1538 227.613 63.133 227.481 63.1584 227.353C63.1838 227.225 63.2536 227.11 63.3556 227.029C64.1256 226.476 64.8956 225.961 65.6656 225.493C65.7183 225.461 65.7771 225.442 65.838 225.435C65.8989 225.428 65.9606 225.435 66.0189 225.453C66.0772 225.472 66.1307 225.503 66.1761 225.545C66.2214 225.586 66.2573 225.636 66.2816 225.692C66.3414 225.808 66.3564 225.942 66.3238 226.068C66.2911 226.194 66.213 226.303 66.1045 226.376C65.3345 226.837 64.5645 227.343 63.7945 227.912C63.7224 227.962 63.6362 227.989 63.5481 227.989C63.4694 227.98 63.3943 227.951 63.3296 227.905C63.265 227.86 63.213 227.799 63.1785 227.727H63.217Z" fill="#455A64"/>
<path d="M69.993 224.41H70.1316C70.5383 224.256 70.9585 224.14 71.3867 224.064C71.5131 224.036 71.6238 223.961 71.6956 223.854C71.7674 223.746 71.7946 223.615 71.7717 223.488C71.7669 223.426 71.7496 223.365 71.7209 223.31C71.6922 223.254 71.6527 223.205 71.6046 223.165C71.5565 223.125 71.5009 223.095 71.441 223.076C71.3811 223.058 71.3181 223.052 71.2558 223.058C70.7788 223.147 70.31 223.275 69.8544 223.442C69.7325 223.49 69.6336 223.583 69.5778 223.702C69.522 223.82 69.5135 223.955 69.5541 224.08C69.5832 224.174 69.6413 224.256 69.7201 224.315C69.7988 224.375 69.8943 224.408 69.993 224.41Z" fill="#455A64"/>
<path d="M286.209 47.7312L238.854 33.2544L275.337 58.2528L286.209 47.7312Z" fill="#FF5C00"/>
<path opacity="0.15" d="M286.209 47.7312L238.854 33.2544L275.337 58.2528L286.209 47.7312Z" fill="white"/>
<path d="M238.854 33.2545L289.82 41.4337L300.693 30.9121L238.854 33.2545Z" fill="#FF5C00"/>
<path opacity="0.15" d="M238.854 33.2545L289.82 41.4337L300.693 30.9121L238.854 33.2545Z" fill="white"/>
<path d="M289.82 41.4336L289.867 53.9981L286.209 47.7312L238.854 33.2544L289.82 41.4336Z" fill="#FF5C00"/>
<path opacity="0.2" d="M289.82 41.4336L289.867 53.9981L286.209 47.7312L238.854 33.2544L289.82 41.4336Z" fill="black"/>
<path d="M289.867 53.9981L282.583 51.241L286.209 47.7312L289.867 53.9981Z" fill="#FF5C00"/>
<path opacity="0.2" d="M286.209 47.7312L282.583 51.241L283.745 51.6787L286.209 47.7312Z" fill="black"/>
<path d="M299.422 45.5195C299.378 45.5523 299.341 45.5937 299.313 45.6412C299.285 45.6887 299.267 45.7414 299.26 45.796C299.244 45.9271 299.276 46.0595 299.349 46.1694C299.423 46.2793 299.533 46.3593 299.661 46.395L301.062 46.7713C301.121 46.7898 301.183 46.7952 301.244 46.7872C301.305 46.7793 301.364 46.7581 301.416 46.7252C301.468 46.6923 301.512 46.6484 301.546 46.5967C301.579 46.545 301.601 46.4866 301.609 46.4257C301.627 46.2964 301.599 46.1649 301.528 46.0549C301.457 45.945 301.349 45.864 301.224 45.8267L299.807 45.4504C299.742 45.4314 299.673 45.4278 299.606 45.4398C299.54 45.4518 299.477 45.4791 299.422 45.5195Z" fill="#455A64"/>
<path d="M305.836 47.2322C306.752 47.5394 307.669 47.862 308.57 48.1922C308.693 48.2388 308.796 48.3279 308.859 48.4433C308.923 48.5588 308.943 48.693 308.916 48.822C308.9 48.8814 308.872 48.9367 308.832 48.9842C308.793 49.0316 308.744 49.0701 308.688 49.097C308.633 49.124 308.572 49.1387 308.511 49.1403C308.449 49.1419 308.388 49.1302 308.331 49.1061C307.438 48.7759 306.529 48.461 305.621 48.1538C305.497 48.1116 305.393 48.0261 305.328 47.9131C305.262 47.8 305.241 47.6672 305.266 47.5394C305.284 47.4409 305.339 47.3529 305.42 47.2936C305.479 47.2495 305.548 47.2208 305.62 47.21C305.693 47.1993 305.767 47.2069 305.836 47.2322ZM313.082 50.0124C313.983 50.4117 314.868 50.7804 315.746 51.2488C315.865 51.3043 315.959 51.4017 316.01 51.5222C316.061 51.6427 316.066 51.7779 316.023 51.9016C316 51.9589 315.965 52.0108 315.921 52.0537C315.877 52.0966 315.823 52.1297 315.765 52.1507C315.707 52.1717 315.645 52.1802 315.583 52.1757C315.522 52.1712 315.462 52.1537 315.407 52.1244C314.545 51.702 313.667 51.2949 312.782 50.9109C312.662 50.857 312.567 50.7623 312.511 50.6439C312.456 50.5255 312.446 50.3914 312.481 50.2658C312.507 50.1829 312.558 50.1103 312.628 50.0584C312.692 50.0107 312.768 49.9812 312.848 49.9731C312.928 49.965 313.009 49.9786 313.082 50.0124ZM320.089 53.5375C320.951 54.029 321.798 54.5436 322.63 55.0735C322.741 55.142 322.823 55.2483 322.861 55.3725C322.899 55.4968 322.891 55.6306 322.838 55.7493C322.807 55.8037 322.765 55.851 322.715 55.8883C322.665 55.9256 322.608 55.9519 322.547 55.9657C322.486 55.9794 322.423 55.9803 322.361 55.9681C322.3 55.956 322.242 55.9312 322.191 55.8952C321.375 55.3807 320.535 54.8815 319.688 54.3592C319.574 54.2957 319.488 54.1925 319.445 54.0692C319.402 53.9459 319.407 53.8113 319.457 53.6911C319.483 53.6271 319.526 53.5713 319.581 53.5298C319.657 53.4814 319.746 53.4563 319.836 53.4577C319.926 53.459 320.014 53.4868 320.089 53.5375ZM326.726 57.846C327.535 58.4373 328.328 59.0517 329.09 59.6661C329.193 59.7455 329.263 59.8609 329.284 59.9891C329.306 60.1173 329.278 60.2489 329.206 60.3573C329.168 60.407 329.12 60.4482 329.065 60.4782C329.01 60.5082 328.949 60.5264 328.887 60.5314C328.824 60.5365 328.761 60.5284 328.702 60.5077C328.643 60.4869 328.589 60.454 328.543 60.4111C327.773 59.8044 327.003 59.2053 326.233 58.6216C326.125 58.5468 326.05 58.4341 326.021 58.306C325.993 58.178 326.013 58.0439 326.079 57.9304C326.102 57.8902 326.133 57.8559 326.172 57.8306C326.254 57.7753 326.352 57.747 326.452 57.7498C326.551 57.7525 326.647 57.7861 326.726 57.846ZM332.848 62.9762C333.572 63.6597 334.288 64.3663 334.981 65.0882C335.07 65.1812 335.12 65.305 335.12 65.4338C335.12 65.5626 335.07 65.6865 334.981 65.7794C334.936 65.824 334.884 65.8594 334.825 65.8835C334.767 65.9077 334.705 65.9201 334.642 65.9201C334.579 65.9201 334.517 65.9077 334.458 65.8835C334.4 65.8594 334.347 65.824 334.303 65.7794C333.625 65.0728 332.917 64.374 332.209 63.7058C332.112 63.62 332.052 63.5008 332.041 63.3724C332.029 63.244 332.067 63.116 332.147 63.0146L332.209 62.9532C332.299 62.8775 332.415 62.8379 332.533 62.8422C332.651 62.8464 332.763 62.8942 332.848 62.9762ZM338.307 68.8284C338.808 69.4351 339.293 70.0495 339.778 70.6792L340.163 71.1938C340.243 71.292 340.282 71.4179 340.271 71.5443C340.259 71.6707 340.198 71.7876 340.101 71.8696C340.049 71.9056 339.99 71.9308 339.928 71.9438C339.865 71.9567 339.801 71.9571 339.739 71.9449C339.676 71.9328 339.617 71.9083 339.564 71.8729C339.511 71.8376 339.466 71.7921 339.431 71.7391L339.046 71.2322C338.577 70.6178 338.099 70.0111 337.606 69.412C337.517 69.3204 337.468 69.1978 337.468 69.0703C337.468 68.9427 337.517 68.8202 337.606 68.7285C337.656 68.6844 337.714 68.6511 337.777 68.6305C337.84 68.61 337.906 68.6028 337.972 68.6093C338.038 68.6158 338.102 68.6359 338.159 68.6683C338.217 68.7007 338.267 68.7448 338.307 68.7976V68.8284ZM342.35 75.126C342.463 75.0665 342.594 75.0525 342.717 75.0868C342.841 75.121 342.946 75.201 343.012 75.3103C343.543 76.1551 344.067 77.0152 344.552 77.8831C344.585 77.9358 344.608 77.9947 344.619 78.0563C344.629 78.1179 344.627 78.181 344.613 78.2418C344.598 78.3027 344.572 78.36 344.535 78.4105C344.498 78.461 344.451 78.5036 344.398 78.5359C344.281 78.588 344.148 78.594 344.027 78.5527C343.905 78.5114 343.804 78.4258 343.743 78.3132C343.25 77.4607 342.735 76.6082 342.203 75.7864C342.135 75.6889 342.106 75.5693 342.121 75.4513C342.137 75.3333 342.197 75.2255 342.288 75.149L342.35 75.126ZM346.253 82.038C346.376 81.9938 346.511 81.9978 346.631 82.0491C346.751 82.1005 346.848 82.1953 346.9 82.3144C347.324 83.213 347.74 84.1269 348.117 85.0408C348.144 85.0971 348.159 85.1582 348.161 85.2204C348.163 85.2826 348.153 85.3446 348.131 85.4028C348.108 85.4609 348.075 85.5139 348.031 85.5586C347.988 85.6033 347.936 85.6388 347.878 85.6629C347.753 85.6984 347.618 85.6858 347.501 85.6276C347.384 85.5693 347.294 85.4696 347.247 85.348C346.877 84.4495 346.477 83.5509 346.053 82.6754C346 82.5802 345.983 82.4693 346.004 82.3625C346.025 82.2556 346.083 82.1597 346.169 82.0917C346.189 82.0501 346.218 82.0134 346.253 81.9842V82.038ZM349.218 89.334C349.346 89.3098 349.479 89.3341 349.59 89.4023C349.701 89.4705 349.782 89.5776 349.819 89.7026C350.111 90.6396 350.388 91.5996 350.627 92.5519C350.646 92.6109 350.651 92.6732 350.644 92.7346C350.636 92.796 350.616 92.8551 350.584 92.9081C350.552 92.9611 350.509 93.0067 350.458 93.0419C350.407 93.0772 350.349 93.1012 350.288 93.1125C350.16 93.1292 350.029 93.0976 349.922 93.0238C349.816 92.95 349.74 92.8393 349.711 92.7132C349.472 91.7762 349.203 90.8316 348.941 89.9176C348.908 89.8293 348.904 89.733 348.929 89.6421C348.954 89.5513 349.006 89.4704 349.079 89.4108C349.114 89.3565 349.162 89.3117 349.218 89.2802V89.334ZM351.066 96.8988C351.198 96.8955 351.326 96.9407 351.427 97.0256C351.528 97.1105 351.594 97.2293 351.613 97.3596C351.767 98.3196 351.89 99.2949 351.99 100.263C351.998 100.323 351.992 100.384 351.975 100.442C351.957 100.5 351.927 100.554 351.887 100.599C351.847 100.645 351.798 100.682 351.743 100.707C351.687 100.732 351.627 100.746 351.566 100.746C351.435 100.745 351.308 100.695 351.211 100.605C351.114 100.516 351.054 100.394 351.043 100.263C350.943 99.318 350.827 98.3656 350.673 97.421C350.659 97.3414 350.667 97.2596 350.695 97.184C350.724 97.1084 350.772 97.0417 350.835 96.9909C350.894 96.9186 350.975 96.8674 351.066 96.845V96.8988Z" fill="#455A64"/>
<path d="M291.476 83.7119C285.678 80.3634 277.708 80.8166 268.9 85.8854C251.19 96.0998 236.798 121.114 236.798 141.765C236.798 152.156 240.448 159.429 246.323 162.831C247.686 163.599 253.015 166.671 253.015 166.671C252.765 169.008 251.955 171.251 250.654 173.211C249.353 175.171 247.598 176.789 245.538 177.93C245.199 178.122 245.407 178.452 245.707 178.621L253.846 183.314C253.956 183.379 254.08 183.416 254.208 183.421C262.224 183.421 271.502 178.045 274.089 166.879C275.06 166.418 276.038 165.919 277.031 165.343C294.741 155.136 309.132 130.114 309.132 109.471C309.132 99.0719 305.49 91.8067 299.615 88.3814L291.476 83.7119Z" fill="#37474F"/>
<path d="M277.031 90.5703C259.321 100.777 244.93 125.798 244.93 146.442C244.93 160.458 251.544 168.845 261.338 169.613C260.969 174.067 259.667 179.075 253.638 182.615C253.161 182.899 253.785 183.429 254.185 183.429C262.201 183.429 271.479 178.053 274.066 166.886C275.037 166.426 276.015 165.926 277.008 165.35C294.718 155.144 309.109 130.122 309.109 109.478C309.109 88.8346 294.756 80.3636 277.031 90.5703Z" fill="#455A64"/>
<path d="M253.661 182.615C253.369 182.799 253.5 183.068 253.746 183.252L245.707 178.644C245.407 178.46 245.199 178.145 245.538 177.946C247.602 176.802 249.36 175.179 250.662 173.214C251.963 171.248 252.77 168.999 253.015 166.656L253.9 167.178L254.716 167.654C256.756 168.773 259.016 169.433 261.338 169.59C260.976 174.067 259.667 179.075 253.661 182.615Z" fill="#263238"/>
<path d="M273.643 149.675C272.788 149.069 272.357 147.978 272.357 146.404C272.376 144.763 272.81 143.154 273.62 141.727C274.355 140.299 275.475 139.105 276.854 138.278C278.163 137.526 279.238 137.436 280.08 138.009C280.919 138.578 281.343 139.653 281.343 141.227C281.318 142.897 280.876 144.533 280.057 145.989C279.339 147.431 278.229 148.642 276.854 149.483C275.576 150.213 274.505 150.282 273.643 149.675ZM272.496 107.927L281.204 102.912L279.749 132.188L273.951 135.529L272.496 107.927Z" fill="#FAFAFA"/>
<path opacity="0.2" d="M281.312 162.547C290.768 155.635 298.922 144.676 303.912 132.91C294.456 139.83 286.302 150.781 281.312 162.547Z" fill="black"/>
<path d="M341.773 202.56C338.492 202.598 336.052 200.31 334.519 197.43C344.344 185.38 350.99 169.329 350.99 155.29C350.99 144.883 347.332 137.572 341.442 134.193L333.318 129.523C327.52 126.182 319.558 126.643 310.757 131.704C293.047 141.919 278.656 166.932 278.656 187.584C278.656 197.975 282.298 205.248 288.173 208.666C289.544 209.434 294.941 212.552 296.273 213.327C302.079 216.699 310.064 216.253 318.888 211.169C321.251 209.798 323.495 208.23 325.595 206.484C331.555 211.192 338.824 206.062 341.703 203.604C342.088 203.282 342.135 202.56 341.773 202.56Z" fill="#E0E0E0"/>
<path d="M304.682 215.04C293.948 215.04 287.288 206.323 287.288 192.3C287.288 171.84 301.579 146.988 319.135 136.858C324.047 134.031 328.744 132.595 333.095 132.595C343.821 132.595 350.489 141.304 350.489 155.336C350.489 168.753 344.221 184.781 334.134 197.153L333.927 197.414L334.08 197.706C335.89 201.108 338.516 203.013 341.488 203.082C341.467 203.147 341.43 203.205 341.38 203.251C339.332 205.002 335.266 207.928 331.054 207.928C329.179 207.937 327.358 207.296 325.903 206.116L325.587 205.87L325.272 206.124C323.191 207.84 320.971 209.381 318.634 210.732C313.729 213.565 309.032 215.04 304.682 215.04Z" fill="#FAFAFA"/>
<path d="M333.095 132.096V133.094C343.513 133.094 349.989 141.619 349.989 155.328C349.989 168.645 343.767 184.55 333.749 196.838L333.326 197.353L333.642 197.937C335.305 201.07 337.646 202.998 340.333 203.482C338.2 205.179 334.666 207.444 331.054 207.444C329.291 207.453 327.579 206.85 326.211 205.739L325.58 205.24L324.956 205.755C322.897 207.468 320.701 209.009 318.388 210.363C313.552 213.143 308.94 214.556 304.682 214.556C294.264 214.556 287.788 206.031 287.788 192.284C287.788 171.986 301.964 147.31 319.358 137.272C324.194 134.492 328.806 133.079 333.064 133.079V132.096M333.064 132.096C328.783 132.096 323.963 133.486 318.858 136.427C301.148 146.634 286.756 171.648 286.756 192.299C286.756 207.007 294.048 215.539 304.651 215.539C308.932 215.539 313.753 214.149 318.858 211.208C321.221 209.836 323.464 208.269 325.564 206.523C327.104 207.777 329.035 208.456 331.024 208.443C335.428 208.443 339.64 205.371 341.673 203.643C342.058 203.32 342.104 202.598 341.742 202.598H341.665C338.431 202.598 336.013 200.333 334.489 197.468C344.314 185.418 350.959 169.367 350.959 155.328C350.959 140.621 343.667 132.096 333.064 132.096Z" fill="#024282"/>
<path d="M317.24 177.293C318.174 175.058 319.247 172.882 320.451 170.78C321.281 169.337 322.036 167.853 322.715 166.333C323.182 165.291 323.431 164.165 323.446 163.023C323.446 161.487 322.984 160.543 322.06 160.174C321.136 159.805 319.92 160.074 318.388 160.942C316.872 161.829 315.546 163.003 314.484 164.398C313.297 165.943 312.328 167.644 311.604 169.451L305.944 168.292C307.21 164.956 309.004 161.845 311.257 159.076C313.462 156.358 316.151 154.069 319.188 152.325C322.782 150.277 325.659 149.637 327.82 150.405C329.981 151.173 331.064 153.369 331.069 156.994C331.08 158.631 330.867 160.261 330.438 161.841C330.058 163.271 329.543 164.662 328.898 165.995C328.29 167.24 327.497 168.722 326.534 170.442C325.601 172.03 324.758 173.668 324.009 175.35C323.492 176.564 323.23 177.871 323.239 179.19L316.178 183.26C316.149 181.222 316.51 179.197 317.24 177.293ZM316.47 197.053C315.616 196.447 315.184 195.356 315.184 193.774C315.203 192.134 315.637 190.525 316.447 189.097C317.182 187.672 318.299 186.478 319.673 185.649C320.99 184.881 322.06 184.804 322.907 185.38C323.754 185.956 324.17 187.031 324.17 188.605C324.144 190.272 323.702 191.906 322.884 193.359C322.166 194.803 321.053 196.015 319.673 196.854C318.434 197.591 317.371 197.652 316.509 197.053H316.47Z" fill="#455A64"/>
<path d="M154.601 142.31L119.181 162.77L133.249 186.624C133.52 187.268 133.992 187.806 134.596 188.16C136.275 189.105 146.215 194.849 146.762 195.164C147.188 195.41 147.665 195.555 148.156 195.591C148.647 195.626 149.139 195.55 149.597 195.368C150.054 195.186 150.464 194.904 150.796 194.541C151.128 194.178 151.373 193.745 151.513 193.275L166.79 149.361L154.601 142.31Z" fill="#024282"/>
<path opacity="0.2" d="M154.601 142.31L119.181 162.77L133.249 186.624C133.52 187.268 133.992 187.806 134.596 188.16C136.275 189.105 146.215 194.849 146.762 195.164C147.188 195.41 147.665 195.555 148.156 195.591C148.647 195.626 149.139 195.55 149.597 195.368C150.054 195.186 150.464 194.904 150.796 194.541C151.128 194.178 151.373 193.745 151.513 193.275L166.79 149.361L154.601 142.31Z" fill="black"/>
<path d="M131.37 169.789L145.438 193.643C145.707 194.249 146.156 194.758 146.724 195.101C147.292 195.444 147.953 195.605 148.616 195.561C149.278 195.518 149.912 195.272 150.43 194.858C150.948 194.443 151.327 193.88 151.513 193.244L166.79 149.33L131.37 169.789Z" fill="#024282"/>
<path d="M194.117 19.9679L60.5453 96.8677C59.6498 97.4467 58.9041 98.2285 58.3689 99.1493C57.8336 100.07 57.5241 101.104 57.4653 102.167V194.626C57.5221 195.686 57.8311 196.716 58.3667 197.632C58.9023 198.548 59.6492 199.324 60.5453 199.895L71.5332 206.039C72.4888 206.518 73.5436 206.768 74.6132 206.768C75.6829 206.768 76.7377 206.518 77.6932 206.039L211.273 129.093C212.167 128.513 212.912 127.731 213.447 126.81C213.982 125.889 214.292 124.856 214.353 123.794V31.3343C214.295 30.2754 213.986 29.2452 213.451 28.3291C212.915 27.413 212.169 26.6372 211.273 26.0658L200.293 19.9218C199.331 19.4481 198.272 19.2056 197.199 19.2136C196.127 19.2216 195.072 19.4799 194.117 19.9679Z" fill="#024282"/>
<path opacity="0.3" d="M214.299 30.7737C214.053 29.2377 212.797 28.6848 211.265 29.5603L77.701 106.483C76.7908 107.05 76.045 107.844 75.5372 108.787L58.4355 99.072C58.9488 98.1854 59.6735 97.4388 60.5453 96.8985L194.125 19.968C195.081 19.4902 196.136 19.2415 197.205 19.2415C198.274 19.2415 199.329 19.4902 200.285 19.968L211.265 26.112C212.074 26.6297 212.762 27.3132 213.285 28.117C213.808 28.9208 214.154 29.8264 214.299 30.7737Z" fill="white"/>
<path d="M74.6284 204.595V112.128C74.6871 111.066 74.9968 110.033 75.532 109.114C76.0673 108.194 76.8131 107.414 77.7084 106.836L211.273 29.9519C212.959 28.9765 214.353 29.7676 214.353 31.7183V124.147C214.292 125.209 213.982 126.243 213.447 127.163C212.912 128.084 212.167 128.866 211.273 129.446L77.693 206.361C75.999 207.36 74.6284 206.546 74.6284 204.595Z" fill="#024282"/>
<path opacity="0.2" d="M77.6933 206.008C76.7343 206.476 75.6808 206.719 74.6133 206.719C73.5459 206.719 72.4924 206.476 71.5333 206.008L60.5531 199.864C59.6577 199.296 58.9111 198.523 58.3754 197.61C57.8397 196.696 57.5304 195.668 57.4731 194.611V102.144C57.5278 101.053 57.8647 99.9947 58.451 99.072L75.5373 108.772C74.9741 109.675 74.6607 110.711 74.6287 111.775V204.234C74.6287 206.024 75.8915 207.053 77.6933 206.008Z" fill="black"/>
<path d="M112.105 130.56L110.772 129.792C110.262 129.501 109.685 129.348 109.098 129.348C108.51 129.348 107.933 129.501 107.423 129.792L99.284 134.477V123.387L114.353 114.716C115.058 114.301 115.643 113.709 116.048 112.999C116.453 112.289 116.665 111.486 116.663 110.669V104.448C116.665 103.631 116.453 102.828 116.048 102.118C115.643 101.408 115.058 100.816 114.353 100.401C113.64 99.9892 112.832 99.7727 112.008 99.7727C111.185 99.7727 110.376 99.9892 109.664 100.401L88.7658 112.435C87.5287 113.147 86.5014 114.171 85.7877 115.405C85.0739 116.638 84.6988 118.038 84.7002 119.462V177.208C84.6967 178.026 84.9081 178.831 85.3134 179.543C85.7186 180.254 86.3037 180.847 87.0102 181.263C87.7234 181.673 88.5319 181.889 89.3549 181.889C90.1779 181.889 90.9864 181.673 91.6995 181.263L96.9124 178.268C97.619 177.852 98.204 177.259 98.6093 176.548C99.0146 175.836 99.226 175.031 99.2224 174.213V151.557L112.051 144.169C112.559 143.874 112.981 143.452 113.274 142.944C113.567 142.436 113.722 141.86 113.722 141.273V133.471C113.732 132.887 113.588 132.31 113.304 131.799C113.02 131.288 112.607 130.861 112.105 130.56Z" fill="#E0E0E0"/>
<path opacity="0.1" d="M92.1768 180.987L91.7302 181.248C91.0171 181.657 90.2088 181.872 89.3863 181.871C88.5637 181.87 87.7558 181.655 87.0432 181.245C86.3306 180.835 85.7384 180.246 85.3259 179.536C84.9133 178.826 84.6949 178.021 84.6924 177.2V119.455C84.6944 118.113 85.0304 116.794 85.6703 115.615L90.3596 118.31C89.717 119.489 89.3808 120.809 89.3817 122.15V179.358C89.383 179.685 89.4697 180.005 89.633 180.287C89.7963 180.569 90.0307 180.804 90.313 180.969C90.5952 181.133 90.9156 181.221 91.2425 181.225C91.5694 181.228 91.8914 181.146 92.1768 180.987Z" fill="black"/>
<path d="M99.2841 123.387V139.883L112.089 132.518C112.261 132.418 112.456 132.364 112.655 132.364C112.853 132.363 113.049 132.415 113.221 132.514C113.393 132.613 113.536 132.756 113.635 132.928C113.734 133.1 113.785 133.295 113.783 133.494V141.312C113.783 141.895 113.629 142.468 113.337 142.973C113.045 143.479 112.626 143.899 112.12 144.192L99.2841 151.58V174.228C99.2873 175.044 99.0756 175.847 98.6702 176.556C98.2649 177.265 97.68 177.855 96.9741 178.268L92.2309 181.002C91.9461 181.167 91.6226 181.254 91.2932 181.254C90.9639 181.255 90.6402 181.168 90.3551 181.004C90.0699 180.839 89.8333 180.603 89.6692 180.318C89.5051 180.033 89.4193 179.71 89.4204 179.382V122.15C89.4206 120.726 89.7963 119.327 90.5099 118.094C91.2235 116.86 92.2499 115.836 93.486 115.123L114.184 103.204C114.441 103.055 114.734 102.977 115.032 102.977C115.329 102.977 115.622 103.056 115.879 103.205C116.137 103.353 116.351 103.567 116.499 103.824C116.647 104.082 116.725 104.374 116.725 104.671V110.684C116.727 111.498 116.514 112.298 116.109 113.004C115.704 113.71 115.119 114.298 114.415 114.708L99.2841 123.387Z" fill="#FAFAFA"/>
<path d="M143.99 88.5041C143.753 87.7023 143.336 86.9646 142.772 86.3465C142.207 85.7284 141.51 85.246 140.732 84.9355C139.954 84.6251 139.115 84.4946 138.279 84.554C137.443 84.6134 136.631 84.8611 135.905 85.2785L130.723 88.266C130.055 88.6497 129.475 89.1683 129.021 89.7886C128.566 90.4089 128.246 91.1171 128.082 91.8679L112.628 162.048C112.507 162.639 112.575 163.254 112.822 163.805C113.069 164.356 113.483 164.816 114.006 165.12L115.423 165.934C115.862 166.187 116.36 166.32 116.867 166.32C117.374 166.32 117.871 166.187 118.31 165.934L124.555 162.34C125.424 161.809 126.132 161.052 126.603 160.151C127.13 159.241 127.517 158.257 127.751 157.232L130.261 144.438L142.889 137.165L144.198 142.364C144.383 143.042 144.807 143.631 145.391 144.023C145.915 144.33 149.557 146.411 150.081 146.726C150.419 146.871 150.79 146.921 151.154 146.872C151.519 146.824 151.864 146.678 152.152 146.45L159.775 142.057L143.99 88.5041ZM133.726 126.774L136.429 112.896L136.59 112.128L139.455 123.471L133.726 126.774Z" fill="#E0E0E0"/>
<path opacity="0.1" d="M150.019 146.688C149.334 146.281 145.899 144.322 145.399 144.023C144.814 143.631 144.391 143.042 144.205 142.364L142.896 137.165L146.392 135.152L148.895 145.06C149.079 145.711 149.475 146.283 150.019 146.688Z" fill="black"/>
<path opacity="0.1" d="M144.144 126.167L139.455 123.464L136.59 112.128C136.59 112.128 136.59 112.128 136.59 112.082C136.837 110.976 137.083 109.716 137.36 108.319C137.691 106.575 137.999 104.717 138.292 102.728C138.626 104.325 138.957 105.797 139.285 107.144C139.616 108.488 139.924 109.64 140.217 110.607L144.144 126.167Z" fill="black"/>
<path opacity="0.1" d="M117.402 164.352C117.36 164.536 117.367 164.728 117.422 164.909C117.477 165.09 117.578 165.253 117.716 165.383C117.853 165.513 118.022 165.606 118.206 165.651C118.39 165.696 118.582 165.693 118.765 165.642V165.704L118.326 165.949C117.887 166.202 117.389 166.335 116.882 166.335C116.375 166.335 115.877 166.202 115.438 165.949L114.006 165.12C113.483 164.816 113.069 164.356 112.822 163.805C112.575 163.254 112.507 162.639 112.628 162.048L128.074 91.8988C128.216 91.2498 128.477 90.6327 128.844 90.0786L133.533 92.782C133.162 93.3309 132.9 93.9464 132.763 94.5945L117.402 164.352Z" fill="black"/>
<path d="M159.783 142.08L152.152 146.473C151.297 146.964 150.612 147.056 150.088 146.749C149.505 146.356 149.081 145.768 148.895 145.09L146.392 135.168L130.222 144.453L127.72 157.248C127.478 158.274 127.089 159.259 126.565 160.174C126.096 161.075 125.387 161.83 124.517 162.355L118.996 165.542C118.81 165.647 118.598 165.697 118.385 165.685C118.171 165.672 117.966 165.599 117.794 165.473C117.621 165.348 117.489 165.175 117.413 164.976C117.336 164.777 117.319 164.56 117.363 164.352L132.725 94.5714C132.89 93.822 133.21 93.1152 133.665 92.4963C134.12 91.8774 134.699 91.36 135.366 90.9771L140.348 88.1048C140.702 87.9012 141.098 87.7804 141.506 87.7514C141.914 87.7225 142.323 87.7862 142.702 87.9378C143.082 88.0893 143.422 88.3248 143.697 88.6264C143.972 88.9281 144.175 89.288 144.29 89.6792L159.783 142.08ZM144.144 126.182L140.217 110.592C139.924 109.632 139.616 108.472 139.285 107.128C138.954 105.784 138.623 104.31 138.292 102.712C138.007 104.701 137.691 106.552 137.368 108.303C137.045 110.054 136.721 111.56 136.429 112.865L132.532 132.833L144.144 126.182Z" fill="#FAFAFA"/>
<path d="M196.281 115.2C197.625 112.894 198.806 110.497 199.815 108.027C200.856 105.48 201.731 102.868 202.433 100.208C203.141 97.5207 203.681 94.7916 204.05 92.0369C204.428 89.2547 204.618 86.4503 204.62 83.6427C204.702 79.5148 204.173 75.3975 203.049 71.4238C202.248 68.4377 200.713 65.6978 198.583 63.452C197.912 62.8111 197.162 62.2588 196.35 61.8085L191.73 59.1358C190.267 58.2901 188.622 57.8081 186.933 57.7304C184.222 57.5768 181.219 58.4497 177.924 60.3493C174.475 62.3693 171.418 64.9916 168.899 68.0907C166.122 71.4535 163.783 75.1541 161.939 79.1038C157.97 87.6224 155.9 96.8977 155.871 106.291C155.791 110.425 156.326 114.548 157.457 118.525C158.256 121.52 159.797 124.267 161.939 126.512C162.607 127.173 163.36 127.741 164.179 128.202C164.949 128.632 167.991 130.399 168.745 130.836C170.227 131.691 171.894 132.174 173.604 132.242C176.315 132.375 179.323 131.492 182.629 129.592C184.035 128.782 185.372 127.857 186.625 126.827L188.534 129.016C188.795 129.282 189.09 129.512 189.412 129.7C189.951 130.015 193.786 132.211 194.078 132.388C194.593 132.703 195.194 132.848 195.796 132.802C196.911 132.67 197.981 132.289 198.929 131.689L207.022 127.035L196.281 115.2ZM189.058 95.923C188.568 98.6326 187.78 101.28 186.71 103.818C185.771 106.067 184.513 108.17 182.975 110.062C181.57 111.789 179.864 113.248 177.939 114.37C176.529 115.282 174.905 115.811 173.227 115.906C172.383 114.542 171.781 113.043 171.448 111.475C170.856 108.761 170.582 105.988 170.632 103.211C170.617 100.136 170.891 97.0661 171.448 94.0414C171.926 91.3333 172.701 88.6858 173.758 86.1464C174.706 83.8875 175.971 81.7747 177.516 79.8718C178.93 78.122 180.652 76.6438 182.598 75.5096C183.983 74.626 185.575 74.1178 187.218 74.035C188.071 75.4109 188.68 76.9228 189.02 78.5048C189.624 81.2224 189.91 84.0005 189.874 86.7838C189.884 89.8589 189.61 92.9284 189.058 95.9537V95.923Z" fill="#E0E0E0"/>
<path opacity="0.1" d="M168.553 130.752C167.575 130.191 164.888 128.632 164.179 128.233C163.36 127.772 162.607 127.204 161.939 126.543C159.797 124.297 158.256 121.551 157.457 118.556C156.326 114.578 155.791 110.455 155.871 106.322C155.871 101.592 156.403 96.8781 157.457 92.2672C158.397 88.0681 159.759 83.9744 161.523 80.0483L166.212 82.7517C162.509 91.0303 160.583 99.9904 160.56 109.056C160.48 113.187 161.015 117.307 162.147 121.282C162.944 124.28 164.485 127.03 166.628 129.277C167.213 129.838 167.859 130.332 168.553 130.752Z" fill="black"/>
<path opacity="0.1" d="M191.399 76.0319C190.946 75.4656 190.38 74.9992 189.738 74.6622C189.095 74.3251 188.389 74.1246 187.665 74.0735C187.534 74.0735 187.395 74.0735 187.264 74.0735C188.113 75.4477 188.72 76.9569 189.058 78.5356C189.647 81.2446 189.921 84.0123 189.874 86.7839C189.887 89.8744 189.613 92.9594 189.058 95.9999C188.568 98.7094 187.78 101.357 186.71 103.895C185.771 106.144 184.514 108.247 182.975 110.139C181.57 111.865 179.864 113.325 177.939 114.447C176.529 115.359 174.905 115.888 173.227 115.983C173.395 116.253 173.583 116.51 173.789 116.751C174.241 117.322 174.81 117.789 175.458 118.122C176.106 118.454 176.819 118.644 177.547 118.679C179.354 118.67 181.12 118.136 182.629 117.143C184.554 116.021 186.26 114.561 187.665 112.834C189.2 110.94 190.457 108.838 191.399 106.591C192.471 104.05 193.258 101.4 193.748 98.6879C194.303 95.6474 194.576 92.5624 194.564 89.4719C194.608 86.708 194.334 83.9482 193.748 81.2466C193.381 79.3503 192.577 77.565 191.399 76.0319Z" fill="black"/>
<path opacity="0.1" d="M187.957 125.706C187.518 126.105 187.079 126.474 186.625 126.858L188.535 129.047C188.795 129.313 189.09 129.543 189.412 129.73C189.936 130.038 193.547 132.103 194.032 132.395C193.734 132.213 193.46 131.993 193.216 131.743L187.957 125.706Z" fill="black"/>
<path d="M207.022 127.065L198.929 131.727C197.982 132.321 196.914 132.699 195.803 132.833C195.319 132.857 194.835 132.771 194.388 132.582C193.942 132.394 193.544 132.106 193.224 131.743L187.957 125.706C186.329 127.201 184.542 128.514 182.629 129.623C179.323 131.522 176.315 132.406 173.604 132.272C170.98 132.176 168.488 131.096 166.628 129.247C164.488 126.997 162.947 124.248 162.147 121.252C161.021 117.286 160.487 113.177 160.56 109.056C160.589 99.6626 162.659 90.3872 166.628 81.8687C168.475 77.91 170.819 74.2016 173.604 70.8325C176.125 67.7351 179.181 65.1132 182.629 63.0911C185.924 61.1864 188.927 60.3135 191.638 60.4722C194.251 60.5967 196.724 61.6926 198.568 63.5442C200.702 65.7899 202.237 68.5333 203.034 71.5237C204.164 75.4832 204.698 79.5881 204.62 83.7042C204.621 86.5116 204.433 89.316 204.058 92.0984C203.681 94.8656 203.136 97.6073 202.425 100.308C201.721 102.966 200.844 105.575 199.8 108.119C198.794 110.591 197.613 112.988 196.265 115.292L207.022 127.065ZM170.632 103.257C170.582 106.037 170.856 108.812 171.448 111.529C171.811 113.415 172.601 115.193 173.758 116.728C174.213 117.295 174.783 117.76 175.43 118.093C176.078 118.425 176.789 118.617 177.516 118.656C179.323 118.646 181.089 118.112 182.598 117.12C184.523 115.998 186.229 114.538 187.634 112.811C189.171 110.917 190.431 108.815 191.376 106.568C192.434 104.026 193.209 101.376 193.686 98.6648C194.245 95.6249 194.519 92.5395 194.502 89.4488C194.55 86.6848 194.277 83.9245 193.686 81.2235C193.325 79.3369 192.535 77.5581 191.376 76.0242C190.921 75.4577 190.354 74.9913 189.71 74.6542C189.066 74.3171 188.359 74.1168 187.634 74.0658C185.846 74.0511 184.094 74.5642 182.598 75.5403C180.651 76.6693 178.928 78.1453 177.516 79.8949C175.974 81.7997 174.709 83.9121 173.758 86.1694C172.704 88.7101 171.93 91.3573 171.448 94.0645C170.892 97.0867 170.618 100.154 170.632 103.227V103.257Z" fill="#FAFAFA"/>
</svg>
